<?xml version="1.0" encoding="utf-8"?>
<!-- Generator: Adobe Illustrator 25.0.1, SVG Export Plug-In . SVG Version: 6.00 Build 0)  -->
<svg version="1.1" id="Layer_1" xmlns="http://www.w3.org/2000/svg" xmlns:xlink="http://www.w3.org/1999/xlink" x="0px" y="0px"
	 viewBox="0 0 3187.4 3389.4" style="enable-background:new 0 0 3187.4 3389.4;" xml:space="preserve">
<style type="text/css">
	.st0{fill:#F9F4EA;}
	.st1{fill:#F9B4A1;}
	.st2{fill:#E7DAD8;}
	.st3{fill:#EE9684;}
	.st4{fill:#D79D45;}
	.st5{fill:#F9CA5A;}
	.st6{fill:#ECBD67;}
	.st7{fill:#9BD3BE;}
	.st8{fill:#CCE7D4;}
	.st9{fill:#F59AB2;}
	.st10{fill:#E0748E;}
	.st11{fill:#911D57;}
	.st12{fill:#FEE29A;}
	.st13{fill:#F9C3D7;}
	.st14{fill:#CDE9DB;}
	.st15{fill:#F8EA90;}
	.st16{fill:#FEDDC7;}
</style>
<g>
	<g>
		<g>
			<path class="st0" d="M2112.7,988l14.2,13.7c1-99,50.2-196.9,91-277.8c16.2-32.1,32-63.5,42.9-91.4c-20.1-22-44.1-38.1-71.7-48.1
				c-30.6-11-59.8-18.6-87.1-22.6c-6.1,13.7-23.3,36.7-58.9,52.4c-80.8,35.7-130.9,8.7-131.3,1.5c0-0.1,0-1.2-0.1-3.3
				c-2.8,2.4-5.6,4.8-8.6,7.3c-38.2,32.9-90.5,77.9-208.6,103.2l-3.1,0.7l-3.2-0.2c-48.1-3.8-148.2-11.6-167.4,11.6
				c-9.1,11.4-29.6,82.4-8.9,156.1c16.1,57.2,52.1,102.2,107.4,134.3c18.9,3.8,128.4,22.1,144.2-66.7l18.8-3.3
				c-2,36.2-15.6,64.4-40.5,83.7c-12.3,9.5-26.2,15.9-40.4,20c58.5,14.7,135.9,16.9,213.8,5.5C2005.2,1051.5,2079,1022.8,2112.7,988
				z M1611.8,815.9c0,0,61.1-46.6,95.5-15.3C1741.7,832,1562.9,856.4,1611.8,815.9z M1900.9,767.1c3.2-1.1,55.3-27.7,113.8-34.6
				c12.6-17.3,26.9-44.5,23.9-76.4l11-3.3c0,0,19.9,28.7-1.6,78.2c8.9,0.3,17.7,1.3,26.4,3c17.4-15.8,38.1-43.7,37.3-86.1h17.2
				c0,0,9.3,55.6-20.1,98c51,5.8,94.4-43.7,94.4-43.7l12.8,7.7c-40,84.5-138.1,74-138.1,74c-3-1.6-6.1-3-9.2-4.3
				c-0.2,0.1-0.3,0.2-0.5,0.3l-0.4-0.6c-65.5-26.2-159.7,5.6-160.7,5.9L1900.9,767.1z"/>
			<path class="st1" d="M1690.5,709.7c0,0,161.7,113.9,155.7,197.9c-5.9,84.1-37.6,151.4-134.5,164.4
				c-96.9,12.9-179.4-50.5-212.3-166.6c-32.9-116.1-39-183.4,33.6-195.6C1605.7,697.5,1690.5,709.7,1690.5,709.7z"/>
			<path class="st2" d="M2187.9,825.9c0,0-148.7,196.2-384,212.4c-78.6,5.4-161.1-20.7-258.7-65.7c0,0,51.5,107,174.8,120
				c123.3,13,412.1-68,412.1-68l20.6-96.3L2187.9,825.9z"/>
			<path class="st3" d="M1545.3,972.6c0,0,27.7,57.6,91.2,93.4c23.5,7.3,48.8,9.5,75.2,6c35.1-4.7,61.6-16.6,81.5-33.7
				c-14.1-0.3-18.3-49.4-5.2-83.9c4.5-11.7,40.9-17.8,39.2-25c-1.3-5.5-84.9-2.4-87.7,1.6c-5.3,7.5,26.6,15.1,21.4,21.3
				C1680.7,1048.6,1605.5,1000.3,1545.3,972.6z"/>
			<path class="st4" d="M1611.5,1379.6c1.7,7.5,3.9,14.6,6.5,21.2c8.8-24.5,43.5-106.9,119.5-138.6l5.7,2.3c0,0-53,38.5-82.1,93.8
				c34.7-21.7,80.5-31.5,123.3-40.5c12.8-2.7,25.8-5.5,38.6-8.5c-11.8-6.9-22.9-15.4-33.1-25.3l-26.3-25.8l35.3-10.6
				c8.5-2.5,19-8.1,29.8-15.7c-10.5,1.7-23.4,3.4-39.2,5.1c-0.1,0.1-0.2,0.1-0.4,0.2C1714.9,1263.7,1635.2,1303.5,1611.5,1379.6z"/>
			<path class="st4" d="M1844.4,1174.9c-4.5,11.3-10.2,21.9-17.2,31.1c37.2-15,52.4-36.3,52.4-36.3c1.8-5.2,3.1-10.3,3.7-15.2
				C1872.6,1161.3,1859.8,1168.1,1844.4,1174.9z"/>
			<path class="st5" d="M1728.5,1210.2c-76.7,15.6-104.9,61-115,96.4c-7.3,25.3-7,50.7-2,73c23.7-76,103.4-115.8,177.6-142.6
				c0.1-0.1,0.2-0.1,0.4-0.2c-1.3,0.1-2.5,0.3-3.8,0.4c-89.4,9.4-128.4,67.4-128.4,67.4l-5.2-2.9c10.9-38.4,71.8-76.4,125.5-83.1
				c19.7-2.5,36.1-7.1,49.6-12.5c7-9.3,12.7-19.8,17.2-31.1C1815.6,1187.7,1777.9,1200.1,1728.5,1210.2z"/>
			<path class="st6" d="M1992.3,494.2c-20.9,24.8-42.3,42.7-50.6,58c0.6,11.5,1.1,22.1,1.6,31.2c29.5,31.1,87.2-55.1,89.7-120.5
				c-4.3-10.7-8.8-21.8-13.5-33.2C2012.8,434.1,2013.4,469.3,1992.3,494.2z"/>
			<path class="st7" d="M2057.5,1108.7c-6.4-12.8-14.6-22.5-20.5-28.5c-4.5,1.6-9.2,3.2-13.9,4.7c40.4,141.6-54.1,170.5-54.1,170.5
				l-7.5-3.4c69-43.6,41.1-128.4,28.8-157.7c-6.3,1.6-12.7,3.1-19.2,4.5c5.7,28.1,14.6,100.1-33.9,136.5l-8.4-4.6
				c0,0,52.2-57,4-122.8c-1.6,2.9-4.4,7.5-9.3,13.3c4.4,16.1,4.8,32.8,0.9,49.8c2.3,27,1.9,53.9-7.5,77.5
				c10.8-0.1,21.6-0.8,32.4-4.8c0.7-1.5,1.5-2.9,2.3-4.3c-0.8,1.4-1.6,2.9-2.3,4.3c3.1-1.1,6.1-2.6,9.2-4.3
				c-3.1,1.8-6.1,3.2-9.2,4.3c-3.7,7.4-6.4,15.3-11.9,22.2c24.1,6.4,49.9-6.3,71.6-15c17.2-13.7,32-30.6,43-49.8
				C2070.5,1169,2072.3,1138,2057.5,1108.7z"/>
			<path class="st8" d="M1937.5,1265.7c-2.3,2.9-5.1,5.5-8.6,7.9C1932.5,1271.3,1935.2,1268.6,1937.5,1265.7c-1.4-0.4-2.7-0.8-4-1.3
				C1934.8,1264.9,1936.2,1265.4,1937.5,1265.7c5.5-6.9,8.2-14.8,11.9-22.2c-10.8,4-21.6,4.7-32.4,4.8c-1.2,3.1-2.6,6.2-4.2,9.2
				c1.6-3,3-6.1,4.2-9.2c-2.2,0-4.3,0-6.5,0c2.2,0,4.3,0,6.5,0c9.4-23.6,9.8-50.5,7.5-77.5c-1,4.5-2.3,9-3.9,13.5
				c-12.8,35.8-43.7,68.3-74.4,88c28.9,16.5,58.6,17.4,80.6,14.4c29.7-4.1,58.3-17,82.3-36.1
				C1987.4,1259.4,1961.6,1272.2,1937.5,1265.7z"/>
			<path class="st6" d="M1957.6,397.2c13.9-10.5,13.9-57.6,12.9-81.7c-15.3-33.8-26.6-56.3-34.7-71.3c-1.7,26.4-2.6,72.3-0.2,151.9
				C1939.5,401.2,1946.6,405.5,1957.6,397.2z"/>
			<path class="st4" d="M2419.8,996.3l-7.2-7.6c0,0,63.7-95.1,47.6-197.6c-27.4,67.2-66.4,134.3-103.2,197.5
				c-9.2,15.8-18,31-26.5,45.8c11.3,4.7,22.9,7.5,34.7,8.2c53.5,3.6,94.6-33.1,95-33.5l23-20.9l11.8,28.8
				c5.1,12.5,9.5,24.8,13.1,36.9c8.8-18.9,15.7-39,20.9-60.5c22.3-92.9,16.4-174.5-17.4-242.4c-5.7-11.4-11.8-21.5-17.7-30.2
				C2501.4,777.5,2505.6,901.2,2419.8,996.3z"/>
			<path class="st9" d="M2369.7,1170c-28.2-6.1-50.8-26.7-71.4-48.5c-7.2-0.7-14.2-2-20.9-3.8c6.8,1.8,13.8,3.1,20.9,3.8
				c-5.6-5.9-11-11.8-16.4-17.5c5.4,5.7,10.8,11.7,16.4,17.5c21.2,2.1,43.5-0.6,63.4-8.6c-35.6-11.6-70.1-32.1-89.7-62.8
				c-13.1-10.2-25.8-22.4-37.9-36.8c-22.1-26.1-32.3-62.8-35.5-102.1c-10.2,64.1-6.5,169.1,100.8,238.6v11.3
				c0,0-74.5-5.9-127.5-131.3c3.7,33,14.2,63.7,31.8,92.4c6.9,11,18.3,27.3,34,44c4.6,2.4,9.4,4.5,14.5,6.3
				C2289.4,1183.9,2332.6,1183,2369.7,1170z"/>
			<path class="st10" d="M2464.2,1059.5c-22.7,13.6-59,29.5-101.9,26.6c-32.1-2.1-62.3-14.2-90.4-35.9
				c19.6,30.6,54.1,51.1,89.7,62.8c7.5-3,14.6-6.7,21.2-11.3c-6.6,4.5-13.7,8.3-21.2,11.3c5.5,1.8,11.1,3.4,16.6,4.8
				c-5.5-1.4-11.1-3-16.6-4.8c-19.8,8-42.1,10.7-63.4,8.6c20.6,21.7,43.2,42.4,71.4,48.5c8.6-3,16.8-6.7,24.6-11
				c-7.8,4.3-16,8-24.6,11c9.7,2.1,20.2,2.4,31.4,0.5c-11.3,2-21.7,1.6-31.4-0.5c-37.1,13-80.3,13.9-117.6,2.8
				c-5-1.8-9.8-3.9-14.5-6.3c29.4,31.4,73.8,64.4,132.2,67.3c42.9,2.1,73.4-9.3,90.9-34C2482.6,1168.9,2483.6,1118.7,2464.2,1059.5z
				"/>
			<path class="st6" d="M1963.3,416.1c-20.6,13.5-26,32.9-26,32.9l0,0c0.5,14.3,1.1,28.5,1.7,42.2c0,0,10.3,19.1,38.3-9.2
				c28.1-28.4,28.8-67.2,25.5-92.3c-4.8-11.4-9.4-22-13.7-32C1974.8,336.5,1983.9,402.5,1963.3,416.1z"/>
			<path class="st6" d="M2018.3,569.9c0,0,10.8,15.3,44.4-32.1l0,0c-4.4-11.2-9.9-25.2-16.2-41.1
				C2044.5,514.5,2037.7,540,2018.3,569.9z"/>
			<path class="st10" d="M2311.5,513.4l-0.5,0.6c0,0-62.7-78.7-137.5-65.7c-34.2,5.9-54.3,24.1-66.2,42.2
				c24.6-12.8,61.5-26.5,98.5-19.7c56.2,10.5,72.8,44,72.8,44l-5,2.7c0,0-28.3-31.3-76-34.4c-34.4-2.2-67.5,22.7-86.8,40.7
				c31.7-11.7,85.8-23.9,128.3,6.5v7.5c0,0-39.5-26.4-87.3-3.9c53.6,4.9,100.9,38.5,118.1,72.5c6.7-23.6,7.8-43.5-0.4-57.5l12.4-7.3
				c25.1,42.8,22.5,89.5-1.3,150c8.1-12.1,15.9-24.3,22.2-37c2.8-6.2,5.3-12.6,7.5-19.1c2.1-17.8,2.4-35.8-0.6-54.2
				c3,18.5,2.7,36.5,0.6,54.2C2323.3,596,2325.1,551.8,2311.5,513.4z"/>
			<path class="st9" d="M2397.3,620c0.7-9,1.2-18.1,1.6-27.2C2398.5,601.9,2397.9,611,2397.3,620c4.9-8,9.3-16.2,13-24.9
				C2406.5,603.8,2402.1,612,2397.3,620c-2.7,35.7-8,70.4-18.6,104.1c37-56.7,62.6-122.8,51-188.4c-25.1-45.6-70.8-83.2-138.5-114.5
				c-53.6-24.7-164.5-40.4-234.2,23l-0.1-0.1c5.7,12.7,11.1,24.7,16.1,35.9c14.5-21.2,49.5-59.6,111.2-56.8
				c84.8,3.8,129.9,87.1,129.9,87.1l-2.5,3.2c13.6,38.4,11.9,82.5-1.5,122.1c-4.8,40.1-18.9,79.1-26.3,119.7
				C2317,707.6,2366.7,670.1,2397.3,620z"/>
			<path class="st10" d="M2444.1,569.2c-3.7-11.6-8.4-22.8-14.4-33.5c11.6,65.7-14,131.7-51,188.4c-2.8,9-6,18-9.6,26.9
				c3.6-8.9,6.8-17.8,9.6-26.9c-6,9.2-12.3,18.2-18.8,26.9c6.5-8.7,12.8-17.6,18.8-26.9c10.6-33.7,15.9-68.4,18.6-104.1
				c-30.6,50.1-80.3,87.6-113.5,135.3c-1.9,10.7-3.4,21.4-4.1,32.4c0.7-10.9,2.2-21.7,4.1-32.4c-13,18.7-23.5,39-29.3,62.2
				c5.8-23.2,16.3-43.5,29.3-62.2c7.4-40.6,21.5-79.6,26.3-119.7c-2.2,6.5-4.7,12.9-7.5,19.1c-6.4,12.7-14.1,24.9-22.2,37
				c-3.4,8.5-7.1,17.3-11.3,26.5l1.3,0.6c-11.6,24.1-42.6,148.5-22.4,226.1C2273,829.1,2366,682.2,2366,682.2l6.4,5.2
				c-62.7,106.6-86.8,227.1-95.6,289.7c19.2-93.4,89.8-210.1,89.8-210.1l9.3,4.7c-49.4,83.6-63.3,174.9-67.1,213.1
				c3.4-5.9,6.9-11.9,10.5-18C2395.3,836,2481.5,687.9,2444.1,569.2z"/>
			<path class="st2" d="M1452.1,1718.9c-5.6,9.5-11.8,19-18.7,28.3c-14.7,32.8-28,75.8-24.3,90.5c6.4,25.6,117.9,227.2,199,307.6
				c14.7,14.6,43.2,14.5,55.8,10.7c-7.7-24.1-36.9-85.8-58.9-132.4c-39.3-83.1-63.4-135-65.6-156.3c-3.3-31.9,3-82.5,6.3-105.5
				C1512.9,1750.8,1481.2,1736.8,1452.1,1718.9z"/>
			<path class="st2" d="M2146.5,2073.6c26.9,37.5,96.5,134.4,111.2,151.5c14.7,5.9,44.1,6.9,57.2,3.5
				c-14.1-51.1-58.5-138.3-98-215.7c-6.3-12.3-12.3-24.2-18.2-35.9c-21,28.8-42.7,56.4-63.7,80.5
				C2138.2,2062.1,2142.1,2067.5,2146.5,2073.6z"/>
			<path class="st3" d="M1587.4,813c0,0,42.6-54.9,75.6-40c9.4,4.2,29.5,41.4-18.9,59.7C1595.7,851,1578,826.4,1587.4,813z"/>
			<path class="st2" d="M1968.4,1818.7c17.5,24.8,43.7,62.9,70.7,106c20.7-45.3,40-91.2,50.5-125.9
				C2047.7,1813.1,2007.4,1819.7,1968.4,1818.7z"/>
			<path class="st0" d="M2310.8,1603.8l-232.8-32.1l0.8-18.2c-10.2-11.5-19.6-24-28.9-37.6c17.5-28.7,40.8-52.6,56.9-81.3
				c-16.3-29.3-23.9-63.4-26.2-97.2c-64.4,69.7-174.1,78.9-266.3,83c-55.7,4.1-133.7,17.6-150.4,77.1c-7.7-12.6-12.9-26.6-16-41.2
				l-3.7,44l-32.9-31.3c-40.9-38.9-57.6-112.3-39.7-174.5c2.5-8.9,6.3-19.3,11.9-30.3c-65.1-7.6-131.7-11.8-191.8,1
				c-81.1,17.3-136.6,63.4-169.4,140.7c-57.1,134.5-42.9,225.8-33.4,286.3c3.1,19.8,5.8,37,5.4,51.9l-0.2,7.5l-4.7,5.8
				c-0.4,0.5-40,49.2-56.8,103.8c-15.7,51,19.4,302.9,28,328.2c11.2,26.7,34.4,36.6,47,33.4c6.8-1.7,10-7.3,11.3-13.6
				c-15.9-14.4-30.4-29.6-47-44c-4.4-94.7-7.7-189.4,14.3-284.1c12.3-49.1,44.6-90.9,77.5-131.8c28.3,5.6,55.5-12.6,73.8-30.9
				c67.6-61.3,88.4-157.5,75.2-244c68.2,36.7,138.5,78.7,215.2,95.6c-28.7,10.8-57.4,21.8-84.8,35.2
				c38.2,47.8,101.7,67.8,161.7,71.4c-4.4-8.5-8.4-17.4-11.5-26.6c78.9,52,174.5,81.9,270.1,70.8c51.1-6.1,105.8-35.9,126.8-84.5
				c73.7,11.8,149.8,13.4,221.6-11.7C2317.8,1621.3,2316.8,1610.3,2310.8,1603.8z"/>
			<g>
				<path class="st2" d="M2335.6,1607.2l-24.7-3.4c6,6.5,7,17.5,0.9,20.6c-71.9,25.2-148,23.5-221.6,11.7
					c-21,48.6-75.7,78.4-126.8,84.5c-95.6,11.1-191.2-18.7-270.1-70.8c3.1,9.2,7.1,18.1,11.5,26.6c-60-3.6-123.4-23.5-161.7-71.4
					c27.4-13.4,56.1-24.4,84.8-35.2c-76.8-16.9-147-58.9-215.2-95.6c13.3,86.5-7.6,182.8-75.2,244c-18.3,18.3-45.5,36.5-73.8,30.9
					c-32.9,41-65.2,82.8-77.5,131.8c-22,94.7-18.7,189.4-14.3,284.1c16.6,14.3,31.1,29.6,47,44c1.2-5.4,1.1-11.3,0.6-15.8
					c-5.3-55.9-25-338.2,107.7-409.4c112-60.1,130.6-211,130.8-212.5l76.1-6.1v15.5l-35.6,13c-4.3,22.5-14.3,63.5-36.2,106.5
					c108.3,57.3,254,69.5,331.4,57.8c-18.3-12.9-36.3-27.7-54.1-44.7l12.4-13c96.7,92.5,213.3,99.5,333.8,53.7l-4.9-33.6l13-11.5
					l37.5,36.6c0.3,0.2,0.5,0.3,0.8,0.5c2.1,1.5,3.8,3.3,5.2,5.4l0.1,0.1l0,0c2.8,4.1,4.1,9,3.7,14.1
					c-6.6,76.4-110,276.5-131.5,317.2c2.3,8.7,6.6,17.1,9.5,18.3c0.7,0.3,5.7-0.3,15.2-7.9c0.5-0.4,0.9-0.7,1.4-1
					c47.9-32.6,132.6-138.5,201.5-251.8C2309.5,1721.9,2337.6,1640.9,2335.6,1607.2z"/>
				<path class="st2" d="M1814.3,1420.3c92.2-4,201.9-13.3,266.3-83c2.3,33.8,9.9,67.9,26.2,97.2c-16,28.6-39.4,52.6-56.9,81.3
					c9.3,13.6,18.7,26.1,28.9,37.6l0.1-1.3l137.5,6.1c8.5-22.5,16.9-46.9,25.3-72.8c-33.4-27.7-56.6-63.5-66.5-103.5
					c-22.2-89.9-3.4-176.6,7.1-213.5c-33.4-44.2-49.6-90-54.1-136c-13.6,10.9-30,20.9-48.8,30.1c5.8,7.3,11.8,16.2,17,26.5
					c15,29.7,26,76.9-6.5,133.5c-32.9,57.4-93.2,98.5-157.1,107.4c-8.6,1.2-17.1,1.8-25.5,1.8c-3.6,0-7.2-0.1-10.7-0.4
					c-31.7,13.8-68,21.5-103.2,29c-86.7,18.4-140.1,32.8-145.4,94.7l-0.1,1.2c3.1,14.6,8.3,28.6,16,41.2
					C1680.6,1437.9,1758.6,1424.5,1814.3,1420.3z"/>
			</g>
			<path class="st5" d="M2447.1,1466.9c-87.5-11.7-165.8-83.1-161.5-175.3c-28.1-10.4-54.9-25.4-74-47.6c-4.5,36.6-5.4,82,5.9,127.5
				c10,40.4,37.9,75.4,78.5,98.8C2345.2,1482.6,2398.9,1482.4,2447.1,1466.9z"/>
			<path class="st4" d="M2551,1333.8c-52.1,7.6-95-10.9-123.9-53.3c-1.1,38,42.8,56.1,42.8,56.1v10.1c-63-20.7-66.7-53.2-63.3-70.9
				c0,0,0,0,0,0c-29.4,82.7,67.9,93,67.9,93v8.6c-83.2,3.7-96.3-51.6-96.9-83.3c-24,84.3,53.2,143.7,116.2,98.9l5,12.2
				c-110.5,59.1-168.5-47.2-156.3-130.6c-42.7-7.2-78-26.7-105.8-49.2l-0.1,0.1c-0.9-0.8-1.7-1.5-2.6-2.3
				c-5.8-4.8-11.3-9.7-16.5-14.7c-2.2,10.5-4.3,22.5-5.9,35.7c19.1,22.1,45.9,37.1,74,47.6c0.2-3.7,0.5-7.4,0.9-11.2
				c-0.4,3.7-0.7,7.5-0.9,11.2c16.3,6.1,33.1,10.6,49.1,14.1c-15.9-3.5-32.7-8-49.1-14.1c-4.3,92.1,73.9,163.6,161.5,175.3
				c15.1-4.8,29.7-11.2,43.5-19.1c-13.7,7.9-28.3,14.3-43.5,19.1c18.1,2.4,36.7,2.3,54.9-0.8c-18.3,3-36.8,3.2-54.9,0.8
				c-48.2,15.4-101.8,15.7-151,3.4c0.5,0.3,0.9,0.5,1.4,0.8c53.6,30.3,122.5,36.9,184.4,17.8c43.6-13.5,67.1-45.1,71.8-96.6
				C2555.6,1369.8,2553.4,1348.4,2551,1333.8z"/>
			<path class="st10" d="M974.3,1475.4l-3.6-7.8c76.1-100.7,197.3-107.3,225.4-107.5c0.3-0.5,0.5-0.9,0.8-1.4
				c-42.2-11.4-144.5-20.4-262.2,103c-10.3,73.9,14.8,121.2,45.4,171.9c16.5-94.6,63.8-150.7,103.9-182.2
				c37.1-29.2,73.7-42.3,92.1-47.5c0.9-2.3,1.9-4.7,2.9-7C1068.5,1380.7,974.3,1475.4,974.3,1475.4z"/>
			<path class="st7" d="M955.9,1383.6c60.3-44.3,119.1-55.6,162.2-56.1c35.5-0.4,64.8,6.3,83.9,12.4c-47.6-52.5-140.9-37-140.9-37
				v-9.7c91.1-23.1,151.9,9.2,167.5,19c0.1-0.1,0.2-0.2,0.3-0.3c-25.5-19.7-59.5-36.2-95.6-42.2l0,0c-0.1,0-0.1,0-0.2,0
				c-21.8-3.6-44.4-3.4-66.3,2.3C1018.4,1284.5,980.5,1322.9,955.9,1383.6z"/>
			<path class="st7" d="M930.1,1771.5c8.6,4.8,17.2,9.6,25.5,14.5c-36.9-44.2-95.3-72.9-138.5-150.2c-57-102,0-228.1,0-228.1h10.3
				c0,0-47,131.2,11.8,215.9c44.9,64.5,119.1,113,154.7,133.9c-6.7-20.5-15.1-39.7-24.1-55.9c-6.5-11.7-13.6-23.3-20.5-34.6
				c-41.3-67.9-84-138.1-45.8-265.7c23.9-79.7,62-124,99.5-148.4c-95.9,1.6-169.3,39.2-212.4,110.6
				c-59.5,98.6-45.2,243.7,32.7,330.3C855.6,1729.8,893.5,1751,930.1,1771.5z"/>
			<path class="st4" d="M816.2,1747.9c-8.6-7.6-17.1-15.8-25.2-24.8c-33.9-37.8-58.3-85.9-70.9-138.8c8.4,84,49.7,157.7,99.6,228.1
				C820.6,1792.4,819.6,1770.9,816.2,1747.9z"/>
			<path class="st5" d="M716.6,1567.8c-6.4,9.6-13.1,21.1-19.2,34.6c-27.9,61.6-30.6,132.8-8.3,211.7c33,116.3-11.4,189.2-54.5,230
				c-7.6,7.2-15.3,13.6-23.1,19.3c58.5-19.1,201.1-82.7,208.3-250.9c-50-70.4-91.3-144-99.6-228.1
				C718.8,1578.8,717.6,1573.3,716.6,1567.8z"/>
			<path class="st9" d="M813,2042.9c10.1-5,19.9-10.7,29.3-17.2c24.6-17,45.2-38.3,61.6-63.8c-2.8-16.2-7.3-32-13.8-47.1
				C873.6,1974.5,839.9,2016.9,813,2042.9z"/>
			<path class="st10" d="M908.8,1809.5c-21.9-12.3-45.5-25.5-68.7-42.5c3.6,22,5.9,49,4,78.6c7.7,10.3,15.6,20.6,23.5,30.9
				c5,6.5,9.5,13.2,13.5,20.2c5.4-13.1,7.7-21.4,7.7-21.4l8.6,4.3c-1.7,12.3-4.2,24.1-7.3,35.2c6.5,15.1,11,30.9,13.8,47.1
				c22.6-35.2,37.5-78.4,44.3-129.3C936.3,1824.9,923,1817.5,908.8,1809.5z"/>
			<path class="st9" d="M844.1,1845.6c-3.9,60.6-25.8,131.8-91.9,191.2c76.1-33,114-104.3,128.9-140.2c-4-7-8.4-13.7-13.5-20.2
				C859.7,1866.3,851.8,1856,844.1,1845.6z"/>
			<path class="st11" d="M2067.8,779.3l0.4,0.6c0.2-0.1,0.3-0.2,0.5-0.3c3.1,1.3,6.2,2.7,9.2,4.3c0,0,98.1,10.5,138.1-74l-12.8-7.7
				c0,0-43.4,49.5-94.4,43.7c29.4-42.4,20.1-98,20.1-98h-17.2c0.8,42.5-19.9,70.3-37.3,86.1c-8.7-1.7-17.5-2.7-26.4-3
				c21.4-49.5,1.6-78.2,1.6-78.2l-11,3.3c3,31.8-11.3,59.1-23.9,76.4c-58.5,6.9-110.6,33.4-113.8,34.6l6.2,18.1
				C1908.1,784.8,2002.3,753.1,2067.8,779.3z"/>
			<path class="st11" d="M2582.7,1281.3l-20.8,5.7c-43.8,12-76.3,1.9-98.8-30.8c15-9.4,25.7-20.7,33.1-31.3
				c19.2-27.1,27.2-63.3,24.3-105.1c23.7-35.1,40.4-73.2,50.7-116.2c31.2-130,5.2-221-22.1-274.5c-18.2-35.6-39.3-59.8-53.6-73.7
				c2.8-33.9,0.1-67.2-10.1-99.4c-22.8-72.3-82.1-131-176.2-174.4c-63.5-29.3-185.5-46.3-271.2,21.4
				c-49.5-108.5-110.5-236.3-120.8-232c-14.5,4.8-9.9,270.4-7.2,388.8l-0.7-1c-12.1,8.3-23.2,17.8-35,28
				c-36.2,31.2-81.2,69.9-186.2,92.9c-108.8-8.4-173.2-6.3-201.2,27.6c-19,22.9-41.2,107.1-17.9,193.1
				c16.7,61.7,63,144.9,189.2,191.2c42.9,15.7,98.8,23.9,159.2,23.9c15.9,0,32-0.6,48.4-1.7c-24.6,16.7-68.8,37.9-146.4,53.7
				c-51.2,10.4-85.3,32.3-108,56.3c-75.9-9.7-155.5-16.9-229.2-1.2c-48,10.3-89,29.7-122.8,58.2c-31.5-25.6-73.7-46.7-119.2-54.3
				c-92.7-22.9-174.3-22.9-242.7,0c-61.7,20.6-111.6,60.3-144.4,114.6c-28.8,47.6-43.6,105.4-42.9,165.5
				c-11.8,11.7-33.8,36.7-51.8,75.4c-22.9,49.3-43.4,131.7-11.6,243.9c51.3,181.1-118.6,233.9-125.8,236l-74.8,21.9l75.3,20.1
				c4.4,1.2,60.3,15.7,132.5,15.7c66.1,0,145.9-12.2,212.4-57.8c62.8-43.2,103.1-109,120.1-196.1c13.5,5.9,32.1,34.9,47.3,52.8
				c35.9-107-16.4-227.6-16.4-227.6c3.3-89.4,34-158.1,91.5-204c17-13.6,34-23.2,48.4-29.8c-32.4,110.3-19.9,190.5-11.9,241.9
				c2.2,14.3,4.2,27.1,4.7,37.2c-12.4,16.3-44,61.1-59.7,112.2c-20.7,67.3,20.1,335.1,29.4,357.5c15.4,37.2,48.7,61.2,81.8,61.2
				c5.4,0,10.8-0.6,16-2c24.6-6.1,49.2-29.2,44.8-75.7c-10.8-113.6-5-318.7,84.9-366.9c6.7-3.6,13.1-7.5,19.3-11.5
				c-2.3,13.8-2.9,27-0.3,37.6c10,39.8,128.7,246.7,210.6,327.9c19.2,19,46.4,25.5,69.2,25.5c6.4,0,12.5-0.5,18-1.4
				c20.6-3.4,35.5-12.4,42-25.2c8.2-16.4,0.6-37.1-62.2-170.1c-25.4-53.7-60.1-127.2-61.7-142.2c-2.5-24.6,2.1-65.5,5.2-88.6
				c72.3,18.5,145.5,24,202.4,24c27,0,50.5-1.2,68.8-3.4c16.3,6.9,32.9,12.4,49.7,16.3c20.1,27.5,68.1,94.6,108.2,160.7
				c-19.2,39.9-37.5,75.6-49.3,97.6c-2.2,4.1-3,8.7-2.3,13.3c1.1,7.8,8.1,47.2,38,59c4.4,1.8,9.9,3.1,16.3,3.1
				c11.2,0,25.2-4.1,41.6-17c13.5-9.3,28.2-22.2,43.7-37.7c2,2.8,4.1,5.7,6.3,8.8c113.7,158.4,116.9,160,124,163.7
				c13.6,7,36.5,11.6,58.9,11.6c20.5,0,40.5-3.8,52.5-13.2c11-8.6,15.8-21.6,12.7-34.9c-12.8-54.9-58.9-145.4-103.5-233
				c-10-19.7-19.6-38.5-28.6-56.5c16.9-24.8,33-49.7,47.5-73.5c36.6-60.1,65.3-116.4,83.1-162.7c22.3-58,27-98.5,14.2-124
				c-3.5-7.1-10.6-11.7-18.5-12l-91.4-4.1c5.7-15.7,11.5-32.3,17.1-49.5c39.2,21.3,84.8,32.3,130.9,32.3c28.5,0,57.1-4.2,84.5-12.7
				c60.7-18.8,96-65.2,102.3-134.3c4.4-49-7.8-92.4-8.3-94.2L2582.7,1281.3z M2460.8,1199.7c-17.4,24.6-48,36.1-90.9,34
				c-89.6-4.4-146.3-79.7-166.2-111.3c-17.6-28.7-28.2-59.4-31.8-92.4c53,125.4,127.5,131.3,127.5,131.3V1150
				c-107.4-69.6-111-174.5-100.8-238.6c3.2,39.2,13.4,75.9,35.5,102.1c38,45.1,81.2,69.5,128.2,72.7c42.9,2.9,79.2-13,101.9-26.6
				C2483.6,1118.7,2482.6,1168.9,2460.8,1199.7z M2511.5,751.1c33.8,67.9,39.7,149.4,17.4,242.4c-5.1,21.5-12.1,41.5-20.9,60.5
				c-3.6-12.1-8-24.4-13.1-36.9l-11.8-28.8l-23,20.9c-0.4,0.4-41.5,37.1-95,33.5c-11.8-0.8-23.4-3.6-34.7-8.2
				c8.4-14.8,17.3-30,26.5-45.8c36.8-63.2,75.8-130.2,103.2-197.5c16.2,102.5-47.6,197.6-47.6,197.6l7.2,7.6
				c85.8-95,81.6-218.8,74-275.4C2499.8,729.6,2505.8,739.7,2511.5,751.1z M2056.9,444.1c69.7-63.4,180.7-47.7,234.2-23
				c83.7,38.6,133.7,87.1,152.9,148c37.5,118.8-48.7,266.9-124.8,397.5c-3.5,6.1-7,12.1-10.5,18c3.8-38.2,17.7-129.5,67.1-213.1
				l-9.3-4.7c0,0-70.7,116.7-89.8,210.1c8.8-62.6,33-183.1,95.6-289.7l-6.4-5.2c0,0-93,146.9-118.1,262.7
				c-20.2-77.6,10.8-202,22.4-226.1l-1.3-0.6c33.8-73.8,41.3-127.7,12.6-176.5l-12.4,7.3c8.2,13.9,7.1,33.8,0.4,57.5
				c-17.2-34-64.5-67.6-118.1-72.5c47.8-22.5,87.3,3.9,87.3,3.9v-7.5c-42.5-30.3-96.6-18.2-128.3-6.5c19.3-18,52.4-42.9,86.8-40.7
				c47.8,3.1,76,34.4,76,34.4l5-2.7c0,0-16.5-33.5-72.8-44c-37-6.9-73.9,6.9-98.5,19.7c11.9-18,32-36.2,66.2-42.2
				c74.9-13,137.5,65.7,137.5,65.7l3.1-3.8c0,0-45.1-83.3-129.9-87.1c-61.6-2.8-96.6,35.6-111.2,56.8
				C2068,468.8,2062.6,456.8,2056.9,444.1L2056.9,444.1z M1989.1,357.7c4.3,10,8.9,20.6,13.7,32c3.4,25,2.7,63.8-25.5,92.3
				c-28,28.3-38.3,9.2-38.3,9.2c-0.6-13.7-1.1-27.9-1.7-42.2l0,0c0,0,5.3-19.4,26-32.9C1983.9,402.5,1974.8,336.5,1989.1,357.7z
				 M2062.7,537.8c-33.6,47.4-44.4,32.1-44.4,32.1c19.4-29.8,26.2-55.3,28.2-73.2C2052.8,512.5,2058.3,526.6,2062.7,537.8
				L2062.7,537.8z M2033,463c-2.5,65.3-60.1,151.6-89.7,120.5c-0.5-9.2-1-19.7-1.6-31.2c8.3-15.4,29.6-33.3,50.6-58
				c21.1-25,20.5-60.1,27.1-64.4C2024.2,441.2,2028.7,452.3,2033,463z M1935.7,244.2c8.1,14.9,19.4,37.5,34.7,71.3
				c1,24.1,1.1,71.2-12.9,81.7c-11,8.3-18,4-22.1-1.1C1933.1,316.5,1934,270.5,1935.7,244.2z M1701.4,1059.2
				c14.2-4.1,28.1-10.5,40.4-20c24.9-19.3,38.6-47.5,40.5-83.7l-18.8,3.3c-15.8,88.8-125.3,70.5-144.2,66.7
				c-55.3-32.1-91.3-77.1-107.4-134.3c-20.7-73.7-0.2-144.7,8.9-156.1c19.2-23.3,119.3-15.4,167.4-11.6l3.2,0.2l3.1-0.7
				c118.1-25.3,170.4-70.3,208.6-103.2c3-2.5,5.8-5,8.6-7.3c0.1,2.1,0.1,3.2,0.1,3.3c0.5,7.3,50.6,34.3,131.3-1.5
				c35.5-15.7,52.8-38.7,58.9-52.4c27.3,4,56.5,11.6,87.1,22.6c27.6,9.9,51.6,26.1,71.7,48.1c-10.9,27.9-26.7,59.3-42.9,91.4
				c-40.8,80.9-90.1,178.8-91,277.8c0,0-95.2,46.2-211.7,63C1837.2,1075.9,1759.9,1073.9,1701.4,1059.2z M2057.5,1108.7
				c14.8,29.3,12.9,60.3-5.4,92.2c-26.4,46-74.4,78.9-125.3,85.9c-22,3-51.7,2.2-80.6-14.4c30.8-19.7,61.7-52.2,74.4-88
				c7.7-21.6,8.6-43,3-63.3c4.8-5.7,7.7-10.3,9.3-13.3c48.2,65.8-4,122.8-4,122.8l8.4,4.6c48.5-36.4,39.6-108.4,33.9-136.5
				c6.5-1.4,12.9-2.9,19.2-4.5c12.4,29.3,40.2,114-28.8,157.7l7.5,3.4c0,0,94.5-28.9,54.1-170.5c4.7-1.5,9.3-3.1,13.9-4.7
				C2042.9,1086.2,2051.1,1095.9,2057.5,1108.7z M1728.5,1210.2c75.7-15.4,124.1-36.4,154.8-55.6c-0.6,5-1.8,10-3.7,15.2
				c0,0-28.1,39.6-102,48.8c-53.8,6.7-114.6,44.7-125.5,83.1l5.2,2.9c0,0,39-58,128.4-67.4c17.6-1.8,31.6-3.7,43-5.5
				c-10.8,7.7-21.3,13.2-29.8,15.7l-35.3,10.6l26.3,25.8c10.2,10,21.2,18.4,33.1,25.3c-12.7,3.1-25.7,5.8-38.6,8.5
				c-42.7,9.1-88.5,18.8-123.3,40.5c29.1-55.3,82.1-93.8,82.1-93.8l-5.7-2.3c-76,31.7-110.7,114.1-119.5,138.6
				c-10.4-26.4-14.2-60.5-4.5-94.2C1623.6,1271.2,1651.8,1225.8,1728.5,1210.2z M1066.8,1271.9c21.9-5.7,44.5-5.9,66.3-2.3
				c0.1,0,0.1,0,0.2,0l0,0c36.1,6,70.1,22.6,95.6,42.2c-0.1,0.1-0.2,0.2-0.3,0.3c-15.6-9.8-76.3-42.1-167.5-19v9.7
				c0,0,93.3-15.5,140.9,37c-19.1-6-48.4-12.8-83.9-12.4c-43.1,0.5-101.8,11.8-162.2,56.1C980.5,1322.9,1018.4,1284.5,1066.8,1271.9
				z M790.7,1363.6c43.1-71.4,116.5-109,212.4-110.6c-37.6,24.4-75.7,68.7-99.5,148.4c-38.2,127.6,4.5,197.8,45.8,265.7
				c6.9,11.3,14,22.9,20.5,34.6c9,16.1,17.4,35.4,24.1,55.9c-35.6-20.9-109.9-69.4-154.7-133.9c-58.8-84.6-11.8-215.9-11.8-215.9
				h-10.3c0,0-57,126.1,0,228.1c43.2,77.3,101.5,106,138.5,150.2c-8.3-4.9-16.9-9.7-25.5-14.5c-36.6-20.5-74.5-41.7-106.7-77.6
				C745.6,1607.3,731.2,1462.2,790.7,1363.6z M689.1,1814c-22.4-78.8-19.6-150.1,8.3-211.7c6.1-13.5,12.8-25,19.2-34.6
				c11.1,59.3,37,113.6,74.4,155.3c8.2,9.1,16.6,17.3,25.2,24.8c31.5,217-139.2,294.1-204.7,315.4c7.7-5.7,15.5-12.1,23.1-19.3
				C677.6,2003.3,722,1930.3,689.1,1814z M842.3,2025.7c-9.4,6.5-19.2,12.2-29.3,17.2c32-30.9,73.5-84.8,84.4-163.3l-8.6-4.3
				c0,0-32.7,116.6-136.6,161.6c98.3-88.4,98.8-202.9,87.9-269.8c23.2,16.9,46.8,30.2,68.7,42.5c14.2,8,27.5,15.4,39.4,23.1
				C936.4,1920.5,900.8,1985.4,842.3,2025.7z M1083.9,1451.4c-40.1,31.5-87.4,87.5-103.9,182.2c-30.6-50.7-55.7-98-45.4-171.9
				c117.7-123.3,220-114.3,262.2-103c-0.3,0.5-0.5,0.9-0.8,1.4c-28.1,0.1-149.3,6.8-225.4,107.5l3.6,7.8c0,0,94.2-94.7,204.6-78.5
				c-1,2.3-1.9,4.7-2.9,7C1157.6,1409.1,1121,1422.2,1083.9,1451.4z M1539.3,1867.3c2.2,21.3,26.4,73.2,65.6,156.3
				c10,21.1,21.4,45.3,31.7,67.7c12.4,27-50.8,30.3-62.5,15.9c-75.2-93.1-159.5-247.3-165.1-269.5c-3.7-14.6,9.6-57.7,24.3-90.5
				c6.9-9.3,13.1-18.8,18.7-28.3c29.1,17.8,60.8,31.8,93.5,42.8C1542.3,1784.8,1536,1835.4,1539.3,1867.3z M1968.4,1818.7
				c39,0.9,79.3-5.7,121.2-19.8c-10.6,34.6-29.8,80.6-50.5,125.9C2012.1,1881.6,1985.9,1843.5,1968.4,1818.7z M2216.9,2012.9
				c23.4,46,48.6,95.4,68.1,138.7c13.4,29.6-49.9,44.4-68.6,18.8c-25.1-34.3-54.5-75.3-69.9-96.8c-4.4-6.1-8.2-11.5-11.5-16
				c21-24.1,42.7-51.7,63.7-80.5C2204.5,1988.7,2210.6,2000.6,2216.9,2012.9z M2078.9,1552.2l-0.9,19.5l257.6,35.5
				c2,33.7-26.1,114.7-98.2,233.3c-49.5,81.5-107.2,159.1-153.6,208.4c-18.1,19.3-44.8-22-22.1-69.7
				c35.5-74.4,75.5-166.8,79.5-213.4c0.4-5.1-0.9-10-3.7-14.1l0,0l-0.1-0.1c-1.4-2-3.1-3.9-5.2-5.4c-0.2-0.2-0.5-0.3-0.8-0.5
				l-37.5-36.6l-13,11.5l4.9,33.6c-120.5,45.8-237.1,38.8-333.8-53.7l-12.4,13c17.7,17,35.8,31.9,54.1,44.7
				c-77.4,11.7-223.1-0.5-331.4-57.8c21.9-43,31.9-84,36.2-106.5l35.6-13v-15.5l-76.1,6.1c-0.2,1.5-18.8,152.4-130.8,212.5
				c-105.5,56.7-114.6,247-111.3,350.5c0.9,26.6-61.8,25.4-66.4-5.3c-12.7-84.8-28.5-230.6-17-268.1
				c16.8-54.6,56.4-103.3,56.8-103.8l4.7-5.8l0.2-7.5c0.4-15-2.3-32.1-5.4-51.9c-9.4-60.5-23.7-151.9,33.4-286.3
				c32.9-77.3,88.3-123.3,169.4-140.7c60-12.8,126.7-8.7,191.8-1c-5.5,11-9.3,21.4-11.9,30.3c-17.9,62.2-1.2,135.6,39.7,174.5
				l32.9,31.3l3.8-45.2c5.3-61.9,58.7-76.4,145.4-94.7c35.2-7.5,71.5-15.2,103.2-29c3.6,0.2,7.1,0.4,10.7,0.4
				c8.4,0,16.9-0.6,25.5-1.8c64-8.8,124.2-50,157.1-107.4c32.5-56.6,21.4-103.8,6.5-133.5c-5.2-10.3-11.2-19.2-17-26.5
				c18.8-9.1,35.2-19.2,48.8-30.1c4.5,45.9,20.6,91.8,54.1,136c-10.5,36.9-29.3,123.6-7.1,213.5c9.9,40.1,33.1,75.8,66.5,103.5
				c-8.4,25.9-16.8,50.2-25.3,72.8L2078.9,1552.2z M2553.6,1392.3c-4.6,51.5-28.1,83.1-71.8,96.6c-61.9,19.1-130.9,12.5-184.4-17.8
				c-41.4-23.4-69.8-58.8-79.9-99.6c-15.3-61.9-8.2-123.5,0-163.1c5.2,5,10.6,9.9,16.5,14.7c0.9,0.8,1.7,1.5,2.6,2.3l0.1-0.1
				c27.9,22.5,63.1,41.9,105.8,49.2c-12.2,83.5,45.8,189.7,156.3,130.6l-5-12.2c-63,44.8-140.2-14.6-116.2-98.9
				c0.7,31.7,13.7,87,96.9,83.3v-8.6c0,0-97.3-10.3-67.9-93c0,0,0,0,0,0c-3.4,17.7,0.3,50.2,63.3,70.9v-10.1
				c0,0-43.9-18.1-42.8-56.1c28.9,42.4,71.8,60.9,123.9,53.3C2553.4,1348.4,2555.6,1369.8,2553.6,1392.3z"/>
			<path class="st11" d="M1608.2,815.9c-28,40.5,74.3,16,54.6-15.3C1643.1,769.3,1608.2,815.9,1608.2,815.9z"/>
			<path class="st12" d="M1945,285.2c3.4-2.3,13.6,49.1,12.2,81.8c-0.5,11.2-4.7,23.2-7.7,26C1937.6,403.7,1940.4,288.3,1945,285.2z
				"/>
			<path class="st12" d="M1964.4,429.8c0,0-13,6.7-15.3,17.8c-2.3,11.1-4.2,38.2,3.3,39.7C1959.9,488.9,1975.1,465.1,1964.4,429.8z"
				/>
			<path class="st12" d="M1978.6,521.4c0,0-29.8,19.1-29.4,32.5c0.4,13.4-3.7,30.6,8.5,27.9C1969.8,579,1998.8,548.5,1978.6,521.4z"
				/>
			<path class="st13" d="M2295.7,441.5c0,0,70.5,32.1,85.4,86c14.9,53.9-29.4,109.5-33.9,95.7c-4.5-13.8,28.2-68.2-21.7-143.3
				C2311.4,458.7,2283.1,435.8,2295.7,441.5z"/>
			<path class="st13" d="M2394.3,519.3c2.1,8.6,5.9,28.4,2.2,50c-4.8,27.8,36.9-20.2,0.9-51.1
				C2396.1,517.1,2393.6,516.5,2394.3,519.3z"/>
			<path class="st14" d="M895.8,1367.6c0,0-60.4,95.5-24.5,216.2C907.3,1704.6,749.9,1520.4,895.8,1367.6z"/>
			<path class="st15" d="M729.4,1928.1c0,0,7.6-53.9-13.7-124.9c-21.3-71.1,0-153.6,0-153.6s5.6,92.3,30.9,143.8
				C771.8,1845,729.4,1928.1,729.4,1928.1z"/>
			<path class="st15" d="M2315.8,1434.1c0,0-53.4-42.4-57.4-106C2258.4,1328.1,2227.1,1426.6,2315.8,1434.1z"/>
			<path class="st1" d="M2064.2,855.2c0,16.2-32.3,29.3-72.2,29.3c-39.9,0-72.2-13.1-72.2-29.3c0-16.2,32.3-29.3,72.2-29.3
				C2031.8,825.9,2064.2,839,2064.2,855.2z"/>
		</g>
		<path class="st16" d="M1635.8,738.3c0,0-91.9-8.2-103.3,10.9c-11.4,19.1-12.3,83.8-2.3,88c10,4.2,16.6-61,49.4-66.7
			C1612.3,764.7,1685.4,743.3,1635.8,738.3z"/>
	</g>
	<g>
		<g>
			<g>
				<g>
					<path class="st11" d="M655.4,2483c6.1,1.4,8.1,6.6,6.1,15.5c-2,9-4.1,16-6.1,20.9c-10.8,24.8-23.6,52.1-38.5,82.1
						c-14.9,29.9-31.4,60.1-49.6,90.4c-18.2,30.3-38,59.8-59.2,88.4c-21.3,28.6-43.7,53.6-67.3,75.1c-10.1,8.5-20.4,15.9-30.9,22.1
						c-10.5,6.2-21.8,10.6-33.9,13.3c-14.2,2.9-27,2.9-38.5,0.1c-11.5-2.8-21.9-7.4-31.4-13.8c-20.2-15.4-33.4-36.5-39.5-63.5
						c-2.7-30.1-2.4-63.3,1-99.8c3.4-36.5,9.1-74.5,17.2-114.2c8.1-39.7,18.6-79.9,31.4-120.8c12.8-40.9,27.3-80.7,43.5-119.6
						c-10.8,1.9-22.4,3.4-34.9,4.8s-26.8,3.6-43,6.7c-2.7,1-5.4,1.6-8.1,1.9c-2.7,0.3-5-0.8-7.1-3.3c-1.4-1.9-0.8-5.3,1.5-10.3
						c2.4-5,5.9-8.7,10.6-11.3c7.4-6.2,15.9-11.7,25.3-16.4c9.5-4.7,19.2-9.2,29.4-13.3c10.1-4.1,19.7-7.9,28.8-11.2
						c9.1-3.3,17.4-6.4,24.8-9.3c16.2-32.8,32.4-61.9,48.6-87.2c16.2-25.4,34.1-49.9,53.6-73.6c6.7-6.8,13.8-12.6,21.3-17.5
						c7.4-4.8,15.5-8.4,24.3-10.7c13.5-3.5,24.5-2,32.9,4.6c8.4,6.5,12,15.9,10.6,28.2c-1.4,8.9-3.4,16.9-6.1,23.9
						c-1.4,3.5-2.5,6.9-3.6,10s-2.2,6.5-3.5,10c-8.1,16.4-16.5,32.2-25.3,47.3c-8.8,15.1-16.9,30.8-24.3,47.1c6.1-0.7,15-2,26.8-3.9
						c11.8-1.9,23.6-3.1,35.4-3.3c11.8-0.3,21.7,1.5,29.9,5.4c8.1,3.8,11.1,11.3,9.1,22.3c-1.4,9.6-5.2,18.1-11.6,25.6
						c-6.4,7.4-14.3,13.3-23.8,17.7c-7.4,3.5-16.2,5.8-26.3,6.9c-2.7,0.3-7.6,0.7-14.7,1.1c-7.1,0.4-14.3,0.9-21.8,1.3
						c-7.4,0.5-14.3,0.9-20.7,1.2c-6.4,0.3-10.3,0.9-11.6,1.8c-8.1,15.7-16.7,34.9-25.8,57.4c-9.1,22.6-18.2,47.2-27.3,73.8
						c-9.1,26.6-17.9,54.6-26.3,83.8s-15.7,57.7-21.8,85.3c-6.1,27.6-10.5,53.9-13.2,78.8c-2.7,24.9-3,46.7-1,65.4
						c0.7,9.4,2.7,16.7,6.1,22.1c3.4,5.4,9.4,6.6,18.2,3.6c7.4-2.1,14.2-5.2,20.2-9.3c6.1-4,12.1-8.7,18.2-14.1
						c20.9-22.5,41.5-47.5,61.7-75c20.2-27.5,39.5-55.4,57.7-83.7c18.2-28.3,35.1-55.7,50.6-82.4s29.4-50.1,41.5-70.3
						C647.3,2486.2,650.7,2483.5,655.4,2483z"/>
					<path class="st11" d="M603.8,2469.3c2.7-5.7,5.5-11.2,8.6-16.6c3-5.4,6.2-10.6,9.6-15.7c16.2-22,36.8-34.3,61.8-37
						c5.4-0.6,11.1,0,17.2,1.7c6.1,1.7,11.3,4.3,15.7,7.9c4.4,3.6,8.1,8.2,11.1,14c3,5.8,4.2,12.4,3.5,19.9
						c0,12.1-2.7,24.9-8.1,38.3c-13.5,33.8-27,65.8-40.5,96c-13.5,30.1-23.3,59.7-29.3,88.7c-1.4,11-0.3,20.5,3,28.5
						s11.1,10.4,23.3,7.1c14.2-3.6,30.7-14.8,49.6-33.7c18.9-18.9,37.5-40,55.7-63.2c18.2-23.2,35.1-46.3,50.6-69.2
						c15.5-22.9,27.3-40.2,35.4-51.9l12.1-16.5c6.1-4.7,9.8-4.2,11.1,1.3c1.4,5.6,1,10.5-1,14.8c-1.4,4.2-2.9,8.2-4.6,12.1
						c-1.7,3.9-3.2,7.6-4.6,11.1c-10.1,20.7-23,43.1-38.5,67.4c-15.5,24.3-32.2,47.9-50.1,70.7c-17.9,22.9-36.4,44.1-55.7,63.7
						c-19.2,19.6-38,35.5-56.2,47.6c-19.6,11.6-38.1,17.9-55.7,19.2c-17.6,1.2-32.9-1.9-46.1-9.2c-13.1-7.4-23.4-18.2-30.9-32.6
						c-7.4-14.4-10.8-31.4-10.1-51c0.7-38.5,7.4-74.8,20.2-108.9C574.1,2539.5,588.3,2504.7,603.8,2469.3z M681.7,2341.5
						c-7.4-9.3-11.1-19.5-11.1-30.7c0-11.1,2.7-22,8.1-32.7c5.4-10.7,13.3-20.5,23.8-29.4c10.5-8.9,22.8-15.1,36.9-18.7
						c23.6-5.2,41.6-4.5,54.1,2.3c12.5,6.7,16,22.2,10.6,46.4c-3.4,12.5-10.1,24.9-20.3,37.1c-10.1,12.2-21.4,22.1-33.9,29.5
						c-12.5,7.4-25,11.3-37.5,11.6C700.1,2357.2,689.8,2352.1,681.7,2341.5z"/>
					<path class="st11" d="M1154.4,2341c17.5,11.6,28.3,26,32.4,43c4,17.1,3.7,36.2-1,57.3c-4.7,21.1-12.1,43.8-22.3,68.2
						c-10.1,24.4-20.6,48.9-31.4,73.7c-10.8,24.8-20.6,49.4-29.3,74c-8.8,24.6-13.5,47.7-14.2,69.3c0.7,13.4,6.9,20.7,18.7,21.8
						c11.8,1.1,23.8-2.4,35.9-10.5c5.4-3.3,10.5-6.9,15.2-10.7c4.7-3.9,9.4-7.8,14.2-11.7c2.7-1.6,5.1-3.8,7.1-6.3
						c2-2.6,4.7-4.4,8.1-5.4c3.4,0.3,4.4,2.2,3,5.7c-2.7,5-5.1,10-7.1,14.9s-4.7,9.6-8.1,14c-3.4,5.1-6.9,9.5-10.6,13.3
						c-3.7,3.8-7.3,7.5-10.6,11.3c-10.8,10.6-24.6,19.2-41.5,25.7c-16.9,6.5-31.4,9.1-43.5,7.7c-33.7-1.1-56.2-11.5-67.3-31.2
						c-11.1-19.7-15.4-44.2-12.7-73.5c2.7-29.3,9.8-60.9,21.3-94.9c11.5-34,23.3-65.8,35.4-95.4c12.1-29.7,21.9-54.7,29.3-75
						c7.4-20.4,8.4-31.6,3-33.7c-12.8,0.7-27,7.3-42.5,19.8c-15.5,12.5-30.7,27.3-45.5,44.4c-14.9,17.1-28.3,35.5-40.5,55
						s-21.3,37-27.3,52.5c-13.5,24.4-25,47.1-34.4,68c-9.4,20.9-19.2,43.7-29.3,68.4c-2.7,5.7-5.7,10.6-9.1,14.7s-7.8,7.1-13.1,9
						c-12.8,3.4-24,3.3-33.4-0.4c-10.8-6.2-17.9-16.8-21.3-31.6c-3.4-14.8-4.7-30.7-4-47.6c0.7-16.9,2.4-33.5,5-49.6
						c2.7-16.1,5.1-29,7.1-38.7c4.7-21.4,10.3-43.1,16.7-65.1c6.4-21.9,13.2-42.9,20.2-62.9c7.1-20,14.9-38.4,23.3-55.1
						c8.4-16.8,17-30.7,25.8-41.7c10.8-17.4,24.3-28.9,40.5-34.7c12.1-4,22.6-4.6,31.4-1.9c8.8,2.8,14.8,9.7,18.2,20.8
						c4,15.1,4,29.4,0,43c-4.1,13.6-8.8,27.4-14.2,41.5c-3.4,7.8-6.4,14.7-9.1,20.7c-2.7,6-5.4,12.1-8.1,18.1s-5.2,12-7.6,18
						c-2.4,6-4.9,13.2-7.6,21.6c16.2-26.7,34.8-51.1,55.7-73.3c20.9-22.2,42.2-40,63.8-53.4c21.6-13.5,42.5-21.5,62.7-24
						C1122,2325.5,1139.5,2329.8,1154.4,2341z"/>
					<path class="st11" d="M1796.1,2350.6c5.4,5.5,6.2,12,2.5,19.5c-3.7,7.5-6.6,14-8.6,19.7c-8.1,13-17.7,29.2-28.8,48.6
						c-11.1,19.4-23.5,39.8-36.9,61.2c-13.5,21.4-27.7,42.6-42.5,63.8s-30,40.5-45.5,58c-15.5,17.5-31,32-46.6,43.5
						c-15.5,11.5-30.7,17.6-45.5,18.6c-14.9-2.4-26.2-7.6-33.9-15.6c-7.8-7.9-13.2-17.5-16.2-28.6c-3-11.1-4.9-22.9-5.6-35.3
						c-0.7-12.4-1.4-24.3-2-35.7c-8.8,9-18.7,18.7-29.9,29c-11.1,10.3-22.8,20.7-34.9,31.1s-24.1,20-35.9,28.7s-22.8,15.9-32.9,21.8
						c-18.9,13.5-37.8,23.6-56.7,30.4c-18.9,6.7-35.8,8.9-50.6,6.5c-14.8-2.5-27-10.3-36.4-23.4c-9.4-13.2-14.5-32.8-15.2-59.1
						c0-25.6,4.6-52.4,13.7-80.4c9.1-28,21.8-55.7,38-83c16.2-27.4,35.8-53.4,58.7-78.2c22.9-24.7,47.9-47,74.9-66.8
						c28.3-18.6,56.7-31.9,85-40.1s54.3-7.7,77.9,1.2c14.2,5.9,24.1,17.1,29.9,33.7c5.7,16.6,3.9,34.5-5.6,53.7
						c-2,2.9-4.4,6.9-7.1,11.9s-6.4,6.8-11.1,5.2c-3.4-1.7-4.9-4.9-4.6-9.6c0.3-4.8,0.5-8.5,0.5-11.2c-2-13.9-9.8-17.8-23.3-11.6
						c-25,12.1-48.6,27.2-70.8,45.1c-22.3,17.9-42.2,37.1-59.7,57.6c-17.6,20.5-32.7,41-45.5,61.6c-12.8,20.6-22.3,39.7-28.3,57.2
						c-2,3.6-3.9,8.9-5.6,15.8c-1.7,6.9-2.7,13.6-3,20.1s0.7,11.7,3,15.9c2.4,4.1,6.9,5.2,13.7,3.1c34.4-15.2,64.6-33.1,90.6-53.8
						c26-20.7,51.8-43.5,77.4-68.6c6.1-10.1,10.6-20.4,13.7-30.8s8.3-20.8,15.7-31.1c6.7-10.2,14.9-17.6,24.3-22.3
						c9.4-4.7,18.4-6.5,26.8-5.4c8.4,1.1,15.3,4.9,20.8,11.4c5.4,6.5,7.1,16.3,5.1,29.3c-1.4,17.7-2.7,35.2-4.1,52.5
						c-1.4,17.4-2.7,34.9-4,52.6c-1.4,18.4,1.5,27.3,8.6,26.9c7.1-0.4,16.2-6.6,27.3-18.6c11.1-12,23.9-28,38.4-48.2
						s28.7-40.7,42.5-61.8c13.8-21.1,26.8-40.8,39-59.4s21.9-31.9,29.4-40.1c2.7-3.7,5.4-7.2,8.1-10.5
						C1786.6,2353.2,1790.7,2351.2,1796.1,2350.6z"/>
					<path class="st11" d="M1968.7,2244.8c21.7-3,39.3-1.9,52.8,3.4s24.1,13.4,31.5,24.4s12,24.2,13.7,39.5
						c1.7,15.3,1.9,31.2,0.5,47.5c51.3-40.6,106.6-65.2,166-73.6c2.7,1.1,4.6,2.9,5.6,5.5c1,2.6-0.2,5.1-3.5,7.5
						c-35.8,16-68.8,34.3-99.2,54.7c-30.4,20.5-56,43-77,67.5c-4.1,32.1-13.9,65.4-29.5,99.8c-15.6,34.4-35.4,66-59.4,94.9
						c-24,28.9-50.7,53.5-80,73.9c-29.4,20.4-59.5,32.6-90.6,36.6c-16.9-0.2-29.2-5.1-36.9-14.7c-7.8-9.6-11-22.6-9.6-38.9
						c2-19.8,9.1-40.6,21.3-62.5c12.1-21.9,26.8-43.4,44-64.4s35.9-41,56.2-59.7c20.2-18.7,39.1-34.7,56.7-48.1
						c-1.4,4.2-3.4,9.6-6.1,16.3s-5.7,13.9-9.1,21.7s-6.9,15.6-10.6,23.4c-3.7,7.8-7.3,14.3-10.6,19.3c-7.4,6.9-16.7,16.3-27.8,28.3
						c-11.1,12-21.6,24.9-31.4,38.8c-9.8,13.9-18.1,27.6-24.8,41.1c-6.7,13.5-9.4,25-8.1,34.3c18.9-8.8,38.4-24.1,58.7-45.8
						c20.2-21.7,38.8-46.5,55.7-74.3c16.9-27.8,30.9-56.6,42-86.5c11.1-29.9,17.4-57,18.7-81.5c0.7-18.9-1.4-32.4-6.1-40.3
						c-4.7-7.9-10.8-12-18.2-12.2c-7.4-0.2-16,2.7-25.8,8.8c-9.8,6.1-19.4,13.4-28.8,21.8c-9.4,8.4-18.6,17.5-27.3,27.2
						c-8.8,9.7-15.9,17.9-21.3,24.5c-41.8,56.5-74.2,115.6-97.2,177.5c-7.4,21.1-15,34.3-22.8,39.9c-7.8,5.6-15,6.3-21.8,2.4
						c-6.7-4-12.5-11.5-17.2-22.4c-4.7-11-7.4-22.5-8.1-34.5c-1.4-17.4-1-40.4,1-68.9c2-28.5,5.9-60.2,11.7-94.9
						c5.7-34.7,13-71.4,21.8-110.1c8.8-38.7,19.6-76.8,32.4-114.3c12.8-37.5,27.3-73.1,43.5-106.9c16.2-33.8,34.4-63.6,54.7-89.4
						c4-4.5,8.7-9.5,14.2-15.2s11.3-10.8,17.7-15.6c6.4-4.7,12.8-9,19.2-12.7c6.4-3.7,12.3-5.9,17.7-6.5c9.4-1,18.7,0.9,27.8,5.6
						s15,11.4,17.7,19.8c6.1,11.5,3,29.5-9.1,54.1c-12.1,24.6-27.5,55.1-46,91.5c-18.6,36.4-37.6,78.4-57.2,126.1
						c-19.6,47.6-34.1,100-43.5,157c13.5-21,27.7-39.9,42.5-56.7c14.9-16.8,29.5-31.2,44-43.2c14.5-12,28.2-21.4,41-28.2
						C1947.1,2250.9,1958.6,2246.6,1968.7,2244.8z"/>
					<path class="st11" d="M2119.7,2385.5c24.3-45.8,56.7-86.1,97.2-120.8c19.6-16.3,40.1-29.6,61.7-40.1s43.2-15.8,64.8-16.1
						c12.8,0,23.6,2.9,32.4,8.7c4,2.3,7.1,5.6,9.1,10.1c4,7,1.4,11.7-8.1,14c-14.2,3.6-29.5,13.3-46.1,29.3
						c-16.5,16-32.4,35.2-47.6,57.8c-15.2,22.5-28.8,46.6-41,72.2c-12.1,25.6-21.4,50.1-27.8,73.3c-6.4,23.3-8.8,43.6-7.1,61
						c1.7,17.4,8.6,28.8,20.7,34.2c12.1,1.4,25.8-2.8,41-12.5c15.2-9.7,30.5-23.2,46-40.4s30.7-37.2,45.5-60.1
						c14.9-22.9,28.2-46.2,40-70.1c11.8-23.9,21.7-47.4,29.9-70.5c8.1-23.1,13.2-43.9,15.2-62.4c0.7-12.9-1.4-24-6.1-33.2
						c-4.7-9.3-10.8-16.9-18.2-22.8c-7.4-5.9-15.9-10.3-25.3-13c-9.4-2.7-18.9-3.9-28.3-3.5c-8.1,0.9-16.5,2.3-25.3,4.3
						s-17.2,4-25.3,6.3c-1.4,0.1-2.9,0.5-4.6,1s-3.2,0.5-4.6,0c-2.7,0.3-4-0.2-4-1.6c0-2.7,0.3-4.4,1-5.2c4.7-5.2,9.4-9.1,14.2-11.7
						c17.5-11.3,35.8-20.2,54.7-26.7c18.9-6.4,38.1-9.3,57.7-8.8c30.3,4.2,52.4,16.9,66.5,38.4c14.1,21.4,22.2,46.2,24.2,74.3
						c0,33.1-5.7,66.2-17.1,99.5s-27,65-46.9,95.1c-19.8,30.1-43.1,58-69.7,83.4c-26.7,25.5-55.1,46.9-85.5,64.4
						c-20.9,11.7-42.3,19.2-64.3,22.6c-21.9,3.4-42.5,3.1-61.7-0.9c-19.2-4-35.9-11.6-50.1-22.9c-14.2-11.3-23.6-25.8-28.3-43.5
						c-8.1-28.1-9.9-55.9-5.6-83.4C2097.3,2437.9,2106.2,2411.3,2119.7,2385.5z"/>
					<path class="st11" d="M2915.6,2238.8c6.1,1.4,8.1,6.6,6.1,15.5c-2,9-4.1,16-6.1,20.9c-10.8,24.8-23.6,52.1-38.5,82.1
						c-14.9,29.9-31.4,60.1-49.6,90.4c-18.2,30.3-38,59.8-59.2,88.4s-43.7,53.6-67.3,75.1c-10.1,8.5-20.4,15.9-30.9,22.1
						c-10.5,6.2-21.8,10.6-33.9,13.3c-14.2,2.9-27,2.9-38.5,0.1c-11.5-2.8-21.9-7.4-31.4-13.8c-20.2-15.4-33.4-36.5-39.5-63.5
						c-2.7-30.1-2.4-63.3,1-99.8c3.4-36.5,9.1-74.5,17.2-114.2c8.1-39.7,18.6-79.9,31.4-120.8c12.8-40.9,27.3-80.7,43.5-119.6
						c-10.8,1.9-22.4,3.4-34.9,4.8c-12.5,1.3-26.8,3.6-43,6.7c-2.7,1-5.4,1.6-8.1,1.9c-2.7,0.3-5-0.8-7.1-3.3
						c-1.4-1.9-0.8-5.3,1.5-10.3c2.4-5,5.9-8.7,10.6-11.3c7.4-6.2,15.9-11.7,25.3-16.4c9.5-4.7,19.2-9.2,29.4-13.3
						c10.1-4.1,19.7-7.9,28.8-11.2s17.4-6.4,24.8-9.3c16.2-32.8,32.4-61.9,48.6-87.2c16.2-25.4,34.1-49.9,53.6-73.6
						c6.7-6.8,13.8-12.6,21.3-17.5s15.5-8.4,24.3-10.7c13.5-3.5,24.5-2,32.9,4.6s12,15.9,10.6,28.2c-1.4,8.9-3.4,16.9-6.1,23.9
						c-1.4,3.5-2.5,6.9-3.6,10c-1,3.1-2.2,6.5-3.5,10c-8.1,16.4-16.5,32.2-25.3,47.3c-8.8,15.1-16.9,30.8-24.3,47.1
						c6.1-0.7,15-2,26.8-3.9s23.6-3.1,35.4-3.3c11.8-0.3,21.7,1.5,29.9,5.4c8.1,3.8,11.1,11.3,9.1,22.3c-1.4,9.6-5.2,18.1-11.6,25.6
						c-6.4,7.4-14.3,13.3-23.8,17.7c-7.4,3.5-16.2,5.8-26.3,6.9c-2.7,0.3-7.6,0.7-14.7,1.1s-14.3,0.9-21.8,1.3
						c-7.4,0.5-14.3,0.9-20.7,1.2c-6.4,0.3-10.3,0.9-11.6,1.8c-8.1,15.7-16.7,34.9-25.8,57.4c-9.1,22.6-18.2,47.2-27.3,73.8
						c-9.1,26.6-17.9,54.6-26.3,83.8c-8.4,29.3-15.7,57.7-21.8,85.3c-6.1,27.6-10.5,53.9-13.2,78.8s-3,46.7-1,65.4
						c0.7,9.4,2.7,16.7,6.1,22.1c3.4,5.4,9.4,6.6,18.2,3.6c7.4-2.1,14.2-5.2,20.2-9.3c6.1-4,12.1-8.7,18.2-14.1
						c20.9-22.5,41.5-47.5,61.7-75c20.2-27.5,39.5-55.4,57.7-83.7c18.2-28.3,35.1-55.7,50.6-82.4c15.5-26.6,29.4-50.1,41.5-70.3
						C2907.5,2242,2910.9,2239.3,2915.6,2238.8z"/>
				</g>
			</g>
		</g>
	</g>
</g>
</svg>
